<svg width="20" height="20" viewBox="0 0 20 20" fill="none" xmlns="http://www.w3.org/2000/svg">
<g clip-path="url(#clip0_2_1929)">
<path d="M19.1616 12.5397C19.1441 12.5163 19.1253 12.4946 19.1051 12.4737C18.5237 11.7467 17.4727 11.6007 16.7398 12.1508C15.6836 12.9293 13.8765 14.2392 13.2734 14.6764L10.6387 14.4699L12.2507 14.117C13.1142 13.9914 13.7332 13.2295 13.6958 12.3302C13.6956 12.3206 13.6949 12.3111 13.694 12.3018C13.6192 11.4032 12.889 10.7256 11.9958 10.7256H7.12055C6.72441 10.7256 6.3548 10.827 6.02191 11.0268C6.00855 11.0349 5.99539 11.0433 5.98246 11.0524L0.789726 14.6805C0.481796 14.8957 0.406523 15.32 0.621679 15.6277C0.83664 15.9358 1.26113 16.0114 1.56883 15.7957L6.7398 12.1828C6.855 12.1177 6.97973 12.0857 7.12074 12.0857H11.996C12.177 12.0857 12.3153 12.2145 12.3371 12.4004C12.3387 12.5641 12.2505 12.746 12.0477 12.7714C12.0273 12.7739 12.0069 12.7773 11.9867 12.7818L9.08422 13.4167C8.85769 13.4664 8.67199 13.6278 8.59148 13.8453C8.51098 14.063 8.5468 14.3065 8.68672 14.4915L9.4577 15.5119C9.57492 15.6673 9.75316 15.765 9.94726 15.7802L13.4166 16.0523C13.5772 16.0639 13.738 16.0196 13.8686 15.9251C13.8923 15.9078 16.2668 14.1892 17.5513 13.2425C17.698 13.1326 17.9314 13.1743 18.05 13.333C18.0631 13.3505 18.0772 13.3674 18.0919 13.3833C18.1833 13.5328 18.1484 13.7244 18.0035 13.833L13.402 17.3014C13.2666 17.4027 13.1255 17.4413 12.9643 17.4199L6.25226 16.581C6.06906 16.5581 5.88492 16.6105 5.74117 16.7261L3.17883 18.7898C2.88609 19.0256 2.84004 19.454 3.07566 19.7465C3.20992 19.9133 3.40695 20 3.60582 20C3.7557 20 3.90648 19.9508 4.03191 19.8499L6.36957 17.9671L12.7898 18.7696C13.3018 18.8378 13.7952 18.7065 14.219 18.3891L18.8213 14.9208C19.5716 14.358 19.7242 13.29 19.1616 12.5397Z" fill="white"/>
<path d="M13.1065 2.35834C12.7308 2.35834 12.4263 2.66287 12.4263 3.03861V7.12025C12.4263 7.49599 12.7308 7.80052 13.1065 7.80052C13.4823 7.80052 13.7868 7.49599 13.7868 7.12025V3.03861C13.7868 2.66287 13.4823 2.35834 13.1065 2.35834Z" fill="white"/>
<path d="M15.1473 4.39899H11.0656C10.6899 4.39899 10.3854 4.70352 10.3854 5.07926C10.3854 5.455 10.6899 5.75953 11.0656 5.75953H15.1473C15.523 5.75953 15.8276 5.455 15.8276 5.07926C15.8276 4.70352 15.523 4.39899 15.1473 4.39899Z" fill="white"/>
<path d="M13.1065 0C10.3056 0 8.02734 2.27848 8.02734 5.07937C8.02734 7.88027 10.3056 10.1587 13.1065 10.1587C15.9071 10.1587 18.1859 7.88031 18.1859 5.07937C18.1859 2.27844 15.9074 0 13.1065 0ZM13.1065 8.7982C11.0559 8.7982 9.38789 7.12996 9.38789 5.07937C9.38789 3.02879 11.0559 1.36055 13.1065 1.36055C15.157 1.36055 16.8253 3.02879 16.8253 5.07937C16.8253 7.12996 15.1571 8.7982 13.1065 8.7982Z" fill="white"/>
</g>
<defs>
<clipPath id="clip0_2_1929">
<rect width="20" height="20" fill="white"/>
</clipPath>
</defs>
</svg>
