<svg width="20" height="20" viewBox="0 0 20 20" fill="none" xmlns="http://www.w3.org/2000/svg">
<g clip-path="url(#clip0_2_1888)">
<path d="M15.6514 10.8194V17.9833H4.34889V10.6724H3.08838V18.6135C3.08838 18.9617 3.37053 19.2438 3.71861 19.2438H16.2817C16.6298 19.2438 16.9119 18.9616 16.9119 18.6135V10.8194H15.6514Z" fill="white"/>
<path d="M19.998 9.63466C19.9842 9.46114 19.8991 9.30103 19.7629 9.19243L10.3932 1.71341C10.1629 1.52978 9.83665 1.52978 9.60685 1.71341L0.23708 9.19243C0.100947 9.30103 0.015869 9.46114 0.00200184 9.63466C-0.0118653 9.80818 0.0467675 9.97982 0.16376 10.1086L2.03353 12.1674C2.15747 12.304 2.32849 12.374 2.50032 12.374C2.63876 12.374 2.77825 12.3284 2.89403 12.2357L10.0001 6.54286L17.1058 12.2357C17.3661 12.4433 17.7428 12.4143 17.9665 12.1674L19.8363 10.1086C19.9535 9.97982 20.0119 9.80818 19.998 9.63466ZM17.4317 10.8813L10.394 5.24349C10.2791 5.15126 10.1396 5.10505 10.0001 5.10505C9.86064 5.10505 9.72114 5.15126 9.60603 5.24349L2.56817 10.8813L1.54845 9.75837L10.0001 3.01216L18.4516 9.75837L17.4317 10.8813Z" fill="white"/>
<path d="M15.8405 0.756348H13.3613C13.0131 0.756348 12.731 1.0385 12.731 1.38658V4.95803H13.9915V2.01682H15.2102V6.84873H16.4707V1.38658C16.4707 1.03846 16.1886 0.756348 15.8405 0.756348Z" fill="white"/>
<path d="M10.0001 10.8193C9.65198 10.8193 9.36987 11.1015 9.36987 11.4496V15.6933C9.36987 16.0414 9.65202 16.3235 10.0001 16.3235C10.3482 16.3235 10.6301 16.0414 10.6303 15.6933V11.4496C10.6303 11.1015 10.3482 10.8193 10.0001 10.8193Z" fill="white"/>
<path d="M12.122 12.9412H7.87828C7.53016 12.9412 7.24805 13.2233 7.24805 13.5714C7.24805 13.9195 7.5302 14.2016 7.87828 14.2016H12.122C12.4701 14.2016 12.7522 13.9195 12.7522 13.5714C12.7522 13.2233 12.4701 12.9412 12.122 12.9412Z" fill="white"/>
</g>
<defs>
<clipPath id="clip0_2_1888">
<rect width="20" height="20" fill="white"/>
</clipPath>
</defs>
</svg>
