<svg width="40" height="40" viewBox="0 0 40 40" fill="none" xmlns="http://www.w3.org/2000/svg">
<g clip-path="url(#clip0_2_2093)">
<path d="M33.9711 13.24L26.7594 6.02831C26.268 5.53729 25.473 5.5369 24.9816 6.02745L6.40729 24.5599L8.18424 26.3411L25.8693 8.6958L31.304 14.131L13.6592 31.8157L15.4399 33.5926L33.9724 15.0178C34.4625 14.5263 34.4622 13.7306 33.9711 13.24Z" fill="#2F80ED"/>
<path d="M36.1099 5.65146L34.349 3.89045C33.9389 3.48037 33.3024 3.40365 32.8068 3.70467L26.7272 7.39443L28.0324 9.54497L33.268 6.36716L33.6328 6.73232L30.4554 11.9679L32.606 13.2732L36.2957 7.19349C36.5967 6.69802 36.52 6.06107 36.1099 5.65146Z" fill="#2F80ED"/>
<path d="M17.7867 34.1633L5.83702 22.2136C5.34601 21.7222 4.54937 21.7222 4.05843 22.2136C3.56703 22.7047 3.56703 23.5013 4.05843 23.9922L16.0081 35.9419C16.2534 36.1876 16.5754 36.3104 16.8974 36.3104C17.219 36.3104 17.5415 36.1875 17.7867 35.9419C18.2781 35.451 18.2781 34.6543 17.7867 34.1633Z" fill="#2F80ED"/>
<path d="M17.4726 23.1787L5.73364 34.9609L7.51549 36.7362L19.2545 24.954L17.4726 23.1787Z" fill="#2F80ED"/>
<path d="M15.0011 20.707L3.26208 32.4893L5.04393 34.2646L16.7829 22.4823L15.0011 20.707Z" fill="#2F80ED"/>
<path d="M10.4491 37.8529L2.14726 29.5506C1.65585 29.0595 0.859215 29.0588 0.3682 29.5506C-0.122815 30.0416 -0.122815 30.8377 0.3682 31.3292L8.67006 39.6315C8.91576 39.8772 9.23779 40 9.55975 40C9.88131 40 10.2038 39.8771 10.449 39.6315C10.9401 39.1405 10.9401 38.3443 10.4491 37.8529Z" fill="#2F80ED"/>
<path d="M39.6315 0.368676C39.1401 -0.122729 38.3443 -0.122729 37.8529 0.368676L33.4503 4.77117C32.9589 5.26218 32.9589 6.05882 33.4503 6.54976C33.696 6.79546 34.0176 6.91827 34.3396 6.91827C34.6617 6.91827 34.9836 6.79538 35.2289 6.54976L39.6314 2.14727C40.1229 1.65633 40.1229 0.859691 39.6315 0.368676Z" fill="#2F80ED"/>
<path d="M14.5997 18.3131L12.8209 20.0919L19.9066 27.1776L21.6854 25.3988L14.5997 18.3131Z" fill="#2F80ED"/>
</g>
<defs>
<clipPath id="clip0_2_2093">
<rect width="40" height="40" fill="white"/>
</clipPath>
</defs>
</svg>
