<svg width="40" height="40" viewBox="0 0 40 40" fill="none" xmlns="http://www.w3.org/2000/svg">
<path d="M36.483 5.5688C34.4656 3.52935 31.7404 2.40185 28.8092 2.39357C25.7923 2.38349 22.7688 3.52662 20.3464 5.55873C17.5913 3.13255 15.0991 1.94958 12.7523 1.94958C9.47483 1.94958 6.43398 3.24044 4.21062 5.5638C2.53952 7.2349 1.39452 9.42896 0.898193 11.9092C0.749599 12.6546 1.23257 13.3794 1.97804 13.5285C2.72257 13.6762 3.44819 13.1941 3.59733 12.4486C3.98632 10.5033 4.87116 8.79544 6.17765 7.48857C7.8978 5.6913 10.2331 4.70185 12.7524 4.70185C14.5776 4.70185 16.7887 5.93169 19.3006 8.33302C19.5823 8.61607 19.9524 8.77248 20.3428 8.77294C20.3433 8.77294 20.3442 8.77294 20.3446 8.77294C20.7341 8.77294 21.1042 8.61748 21.3863 8.33537C23.4143 6.3074 26.1069 5.14591 28.7767 5.14591C28.7855 5.14591 28.7937 5.14591 28.8019 5.14591C31.0267 5.15185 33.0066 5.96794 34.5111 7.48857C36.2762 9.33216 37.2483 11.7469 37.2483 14.289C37.2483 16.8331 36.2542 19.3079 34.5487 21.0519L20.3669 34.761L9.12155 23.8958C8.57522 23.3679 7.70413 23.3839 7.17569 23.9289C6.64773 24.4757 6.66288 25.3468 7.20921 25.8747L19.411 37.6637C19.6775 37.9215 20.0225 38.0504 20.3669 38.0504C20.7114 38.0504 21.0564 37.9215 21.3234 37.6642L36.4885 23.0037C38.7202 20.7225 40 17.5463 40 14.289C40 11.0344 38.7564 7.9431 36.483 5.5688Z" fill="#27AE60"/>
<path d="M37.523 17.4543H26.422C26.0431 17.4543 25.6816 17.6098 25.422 17.885L21.2491 22.2974L16.4427 11.3947C16.2362 10.9263 15.7867 10.6112 15.2762 10.5768C14.7684 10.5442 14.278 10.7942 14.0105 11.2305L10.1931 17.4543H1.37617C0.616016 17.4543 0 18.0703 0 18.8305C0 19.5906 0.616016 20.2067 1.37617 20.2067H10.9629C11.4413 20.2067 11.8859 19.9581 12.1359 19.5498L14.9836 14.9076L19.5666 25.303C19.7524 25.725 20.1373 26.0255 20.5914 26.1039C20.6694 26.1172 20.7478 26.1241 20.8258 26.1241C21.201 26.1241 21.5638 25.9709 21.8258 25.6938L27.0148 20.2066H37.523C38.2831 20.2066 38.8992 19.5905 38.8992 18.8304C38.8991 18.0703 38.283 17.4543 37.523 17.4543Z" fill="#27AE60"/>
</svg>
